<?xml version="1.0" encoding="UTF-8"?>
<svg width="15px" height="37px" viewBox="0 0 15 37" version="1.1" xmlns="http://www.w3.org/2000/svg" xmlns:xlink="http://www.w3.org/1999/xlink">
    <!-- Generator: Sketch 51.3 (57544) - http://www.bohemiancoding.com/sketch -->
    <title>facebook-icon</title>
    <desc>Created with Sketch.</desc>
    <defs></defs>
    <g id="Page-1" stroke="none" stroke-width="1" fill="none" fill-rule="evenodd">
        <g id="Landingpage-/-Kampagne-I" transform="translate(-794.000000, -1809.000000)" fill="#FFFFFF" fill-rule="nonzero">
            <path d="M797.353733,1821.09684 L794,1821.09684 L794,1827.41917 L797.353733,1827.41917 L797.353733,1846 L803.812198,1846 L803.812198,1827.33835 L808.31756,1827.33835 L808.8,1821.09684 L803.819979,1821.09684 C803.819979,1821.09684 803.819979,1818.76189 803.819979,1817.54053 C803.819979,1816.06772 804.076761,1815.48398 805.306204,1815.48398 C806.302208,1815.48398 808.8,1815.48398 808.8,1815.48398 L808.8,1809 C808.8,1809 805.119453,1809 804.333544,1809 C799.532492,1809 797.361514,1811.44272 797.361514,1816.11262 C797.353733,1820.18981 797.353733,1821.09684 797.353733,1821.09684 Z" id="facebook-icon"></path>
        </g>
    </g>
</svg>